<?xml version="1.0" encoding="UTF-8" standalone="no"?>
<!-- Created with Inkscape (http://www.inkscape.org/) -->

<svg
   version="1.1"
   id="svg2"
   width="619"
   height="185"
   viewBox="0 0 619 185"
   sodipodi:docname="cortlogo.svg"
   inkscape:version="1.1 (ce6663b3b7, 2021-05-25)"
   inkscape:export-filename="/home/IshanD/Cortinarius-I.github.io/cortlogo.png"
   inkscape:export-xdpi="94"
   inkscape:export-ydpi="94"
   xmlns:inkscape="http://www.inkscape.org/namespaces/inkscape"
   xmlns:sodipodi="http://sodipodi.sourceforge.net/DTD/sodipodi-0.dtd"
   xmlns="http://www.w3.org/2000/svg"
   xmlns:svg="http://www.w3.org/2000/svg">
  <defs
     id="defs6">
    <rect
       x="883.42694"
       y="358.59457"
       width="124.56265"
       height="45.612251"
       id="rect83320" />
    <inkscape:path-effect
       effect="bspline"
       id="path-effect15201"
       is_visible="true"
       lpeversion="1"
       weight="33.333333"
       steps="2"
       helper_size="0"
       apply_no_weight="true"
       apply_with_weight="true"
       only_selected="false" />
    <clipPath
       clipPathUnits="userSpaceOnUse"
       id="clipPath11225">
      <path
         id="path11227"
         style="fill:none;fill-opacity:1;fill-rule:evenodd;stroke:#ffffff;stroke-width:0.53917;stroke-linejoin:round;stroke-miterlimit:4;stroke-dasharray:none;stroke-opacity:1"
         d="m 511.76997,478.52413 c 35.17119,-14.01291 18.80038,-82.74976 -20.25952,-109.48862 -36.64912,-25.08856 -45.73914,-105.86534 -93.59472,-106.09596 -48.68167,0.30938 -48.34162,72.73996 -91.64967,99.89032 -40.70823,25.5205 -63.05919,104.80114 -23.39218,117.27143 l 57.22402,-0.39429 c 38.14935,-0.26285 76.29869,-0.52573 114.44804,-0.78859 z"
         sodipodi:nodetypes="cscscccc"
         clip-path="none" />
    </clipPath>
    <clipPath
       clipPathUnits="userSpaceOnUse"
       id="clipPath11443">
      <path
         id="path11445"
         style="fill:none;fill-opacity:1;fill-rule:evenodd;stroke:#ffffff;stroke-width:0.206349;stroke-linejoin:round;stroke-miterlimit:4;stroke-dasharray:none;stroke-opacity:1"
         d="m 512.899,480.9101 c 35.17119,-14.01291 18.80041,-82.74976 -20.25949,-109.48862 -36.64912,-25.08856 -45.73914,-105.86534 -93.59472,-106.09596 -48.68167,0.30938 -48.34162,72.73996 -91.64967,99.89032 -40.70823,25.5205 -63.05919,104.80114 -23.39218,117.27143 l 57.22402,-0.39428 c 38.14935,-0.26284 76.29869,-0.52572 114.44804,-0.78858 z"
         sodipodi:nodetypes="cscscccc"
         clip-path="none" />
    </clipPath>
  </defs>
  <sodipodi:namedview
     id="namedview4"
     pagecolor="#ffffff"
     bordercolor="#999999"
     borderopacity="1"
     inkscape:pageshadow="0"
     inkscape:pageopacity="0"
     inkscape:pagecheckerboard="0"
     showgrid="false"
     inkscape:zoom="1.3808291"
     inkscape:cx="340.73732"
     inkscape:cy="77.127576"
     inkscape:window-width="1280"
     inkscape:window-height="602"
     inkscape:window-x="0"
     inkscape:window-y="27"
     inkscape:window-maximized="1"
     inkscape:current-layer="g15098"
     units="px"
     scale-x="1"
     showborder="true" />
  <g
     inkscape:groupmode="layer"
     inkscape:label="Image"
     id="g8">
    <g
       id="g12920">
      <g
         id="g15098"
         transform="matrix(0.35964434,0,0,0.25101791,-71.626102,-61.668751)">
        <rect
           style="fill:#000000;fill-opacity:1;fill-rule:evenodd;stroke:#ffffff;stroke-width:0.206349;stroke-linejoin:round;stroke-miterlimit:4;stroke-dasharray:none;stroke-opacity:1"
           id="rect11641"
           width="2308.8789"
           height="1364.0981"
           x="-1.5774883"
           y="-64.798035" />
        <a
           id="a3114"
           style="fill:#cccccc;fill-opacity:1;stroke:#000000;stroke-opacity:1"
           transform="translate(5.1929476)">
          <path
             style="fill:#cccccc;fill-opacity:1;stroke:#cccccc;stroke-width:3.5;stroke-miterlimit:4;stroke-dasharray:none;stroke-opacity:1"
             d="m 450.81435,481.178 c 0,0 -19.99511,31.60623 -24.29294,49.46622 -10.69303,44.4358 -2.1658,137.09574 -2.1658,137.09574 l 0.1525,43.91464 c 0.0214,6.16377 -1.42097,14.60315 0.82871,20.42278 2.02293,5.23318 7.62799,8.54104 11.54015,12.25515 8.64711,8.2107 20.59705,17.30152 26.91212,27.44135 2.99985,4.8182 1.82045,11.91818 1.83935,17.35542 l 0.13121,37.78702 c 0.0224,6.46464 -2.01932,17.28097 0.69642,23.20724 1.62387,3.54231 6.62972,5.16918 8.95938,8.43431 6.19254,8.6788 0.87641,20.92815 -9.46635,22.92185 -18.22485,3.51523 -22.05251,-23.22093 -5.20716,-29.01392 l -0.18439,-53.10606 -0.70095,-24.50836 -10.6607,-12.21837 -24.59205,-23.40412 c 0.74594,15.39911 0.10555,37.34878 0.5016,50.92658 2.23063,7.69171 12.47852,8.07995 11.88347,18.47765 -0.95416,16.68393 -22.67568,17.61007 -28.32145,3.1622 -4.73899,-12.12764 11.01821,-16.91291 10.98251,-28.63406 l -0.40424,-116.42484 c -8.21053,-1.00871 -24.68678,-5.0978 -31.54653,0.55238 -5.77517,4.75686 -4.51776,13.36659 -4.12701,19.99715 1.12484,19.08735 0.88034,41.96655 0.35288,58.10159 0.72188,4.06731 5.05117,4.96735 7.70944,7.57975 6.27063,6.16312 5.24245,15.05696 -0.71963,20.99088 -8.63675,8.59754 -23.57389,2.16629 -24.15339,-10.01764 -0.49134,-10.32346 11.47884,-11.28418 12.77298,-19.46812 1.19808,-16.18421 -0.23349,-36.60555 -0.0367,-54.10847 0.0881,-7.83952 -1.12435,-16.14431 1.96096,-23.49631 l -19.3935,3.13119 0.28015,80.68036 c 0.04,11.53118 -2.50861,26.66828 0.57443,37.78548 5.7304,13.2717 9.89318,3.66598 38.56288,41.64202 3.29271,6.20409 1.40373,16.61344 1.42753,23.46922 l 0.83917,56.27963 c 22.02802,6.46074 9.09805,38.66074 -9.08039,27.59698 -7.62672,-4.64284 -9.84232,-14.17801 -4.53315,-21.37707 2.11126,-2.86285 8.81694,-5.43092 10.26013,-8.63765 2.46371,-5.47651 0.35538,-1.43985 0.33478,-7.38365 -0.93262,-15.87872 0.54583,-51.71313 -2.92967,-66.77416 -4.22475,-11.94814 -24.60871,-26.9108 -35.29258,-35.62235 0.21749,23.29207 0.72285,34.36498 0.40986,74.50829 1.30867,7.76334 12.4413,8.82359 12.69301,18.38295 0.36836,14.02705 -18.09054,18.95551 -26.47684,9.09454 -10.71821,-12.60321 4.65696,-16.79279 8.79608,-25.65352 2.61772,-5.08426 0.49413,-13.76614 0.68075,-22.19074 l -0.56385,-162.38202 -15.27295,13.32973 -20.61088,22.53978 -0.67977,22.47059 1.20922,54.12378 c 16.04264,5.39182 14.04028,30.20369 -3.98324,29.34303 -8.0756,-0.38456 -13.86317,-8.31412 -13.42519,-16.0059 0.52747,-9.271 10.94136,-10.18955 12.13655,-17.46013 2.8514,-17.3523 0.0209,-37.48931 -0.0402,-55.09296 -0.0235,-6.77203 -1.9639,-16.75856 2.2893,-22.47616 11.36184,-15.27404 38.37425,-27.75997 38.31685,-48.13335 h 3e-5 -3e-5 c 0,0 6.4173,-93.75683 -2.35921,-139.39077 -3.41426,-17.75263 -19.2617,-50.69818 -19.2617,-50.69818"
             id="path827"
             sodipodi:nodetypes="caccssccccccccsccccccscsccsccsccscccccsscccccccccccscssccssccac" />
        </a>
        <path
           id="path4262"
           style="fill:#90169c;fill-opacity:1;fill-rule:evenodd;stroke:none;stroke-width:1.53738;stroke-linejoin:round"
           d="m 513.23131,480.78371 c 35.17119,-14.01291 18.8004,-82.74976 -20.25949,-109.48862 -36.64913,-25.08856 -45.73915,-105.86534 -93.59473,-106.09596 -48.68167,0.30938 -48.34162,72.73996 -91.64967,99.89032 -40.70823,25.5205 -63.05919,104.80114 -23.39218,117.27143 l 57.22402,-0.39429 c 38.14935,-0.26286 76.29869,-0.52573 114.44804,-0.78859 z"
           sodipodi:nodetypes="cscscccc"
           clip-path="none" />
        <ellipse
           style="fill:#ffffff;fill-rule:evenodd;stroke-width:4.08478;stroke-linejoin:round"
           id="path1366-6"
           cx="482.79523"
           cy="387.22778"
           rx="16.525002"
           ry="15.429671" />
        <ellipse
           style="fill:#ffffff;fill-rule:evenodd;stroke-width:5.09657;stroke-linejoin:round"
           id="path1366-7"
           cx="384.9722"
           cy="316.01175"
           rx="21.219162"
           ry="18.706259" />
        <ellipse
           style="fill:#ffffff;fill-rule:evenodd;stroke-width:6.59983;stroke-linejoin:round"
           id="path1366-35"
           cx="391.60974"
           cy="371.20273"
           rx="27.69829"
           ry="24.031052" />
        <ellipse
           style="fill:#ffffff;fill-rule:evenodd;stroke-width:5.09657;stroke-linejoin:round"
           id="path1366-3"
           clip-path="url(#clipPath11225)"
           ry="18.706259"
           rx="21.219162"
           cy="341.00482"
           cx="453.33099" />
        <ellipse
           style="fill:#ffffff;fill-rule:evenodd;stroke-width:5.09657;stroke-linejoin:round"
           id="path1366"
           cx="308.85562"
           cy="376.27185"
           rx="21.219162"
           ry="18.706259"
           clip-path="url(#clipPath11443)" />
      </g>
      <text
         xml:space="preserve"
         id="text83318"
         style="font-style:normal;font-weight:normal;font-size:40px;line-height:1.25;font-family:sans-serif;letter-spacing:0px;word-spacing:0px;white-space:pre;shape-inside:url(#rect83320);fill:#000000;fill-opacity:1;stroke:none" />
      <text
         xml:space="preserve"
         style="font-style:normal;font-variant:normal;font-weight:normal;font-stretch:normal;font-size:88.2302px;line-height:1.25;font-family:'padmaa-Bold.1.1';-inkscape-font-specification:'padmaa-Bold.1.1';letter-spacing:0px;word-spacing:0px;fill:#cccccc;fill-opacity:1;stroke:none;stroke-width:2.20574"
         x="81.970207"
         y="142.29015"
         id="text37491"
         transform="scale(1.1699355,0.854748)"><tspan
           sodipodi:role="line"
           id="tspan37489"
           x="81.970207"
           y="142.29015"
           style="font-style:normal;font-variant:normal;font-weight:normal;font-stretch:normal;font-family:'Quicksand Light';-inkscape-font-specification:'Quicksand Light, ';stroke-width:2.20574">Cortinarius</tspan></text>
    </g>
  </g>
</svg>
